# xmcd
#
# Track frame offsets: 
#        150
#        14639
#        34639
#        52413
#        67121
#        87422
#        108701
#        123258
#
# Disc length: 1947 seconds
#
# Revision: 0
# Processed by: cddbd v1.5.2PL0 Copyright (c) Steve Scherf et al.
# Submitted via: ExactAudioCopy v1.0b1
#
DISCID=75079908
DTITLE=Unwed Mothers - Unwed Mothers
DYEAR=2013
DGENRE=Blues Rock
TTITLE0=Skeletons
TTITLE1=Lose Control
TTITLE2=On The Run
TTITLE3=White Knight
TTITLE4=Lover's Disease
TTITLE5=Cherry Grove
TTITLE6=Soul
TTITLE7=Slow
EXTD=
EXTT0=
EXTT1=
EXTT2=
EXTT3=
EXTT4=
EXTT5=
EXTT6=
EXTT7=
PLAYORDER=
